<svg width="120.000000" height="120.000000" viewBox="0 0 120 120" fill="none" xmlns="http://www.w3.org/2000/svg" xmlns:xlink="http://www.w3.org/1999/xlink">
	<desc>
			Created with Pixso.
	</desc>
	<defs>
		<clipPath id="clip44_788">
			<rect id="insurance-package-policy-svgrepo-com" width="120.000000" height="120.000000" fill="white" fill-opacity="0"/>
		</clipPath>
	</defs>
	<g clip-path="url(#clip44_788)">
		<rect id="rect" x="6.528320" y="47.055664" width="2.343750" height="3.821719" fill="#949CA2" fill-opacity="1.000000"/>
		<path id="polygon" d="M8.87 54.35L6.52 54.35L6.52 114.46L75.18 114.46L75.18 112.12L8.87 112.12L8.87 54.35Z" fill="#949CA2" fill-opacity="1.000000" fill-rule="nonzero"/>
		<path id="polygon" d="M90.01 112.12L79.01 112.12L79.01 114.46L92.35 114.46L92.35 59.96L90.01 59.96L90.01 112.12Z" fill="#949CA2" fill-opacity="1.000000" fill-rule="nonzero"/>
		<path id="path" d="M6.52 43.55L8.87 43.55L8.87 33.84L40.53 33.84L40.53 70.52L58.34 70.52L58.34 33.84L66.76 33.84C67.32 35.14 67.93 36.41 68.6 37.66C72.14 44.27 77.37 50.17 83.74 54.73L87.33 57.3L90.95 54.71C97.01 50.37 102.06 44.8 105.55 38.6C108.2 33.89 110.07 28.81 111.1 23.5L112.3 17.34L106.44 16.66C100.04 15.92 94.11 12.9 89.75 8.16L87.33 5.53L84.92 8.16C80.56 12.9 74.63 15.92 68.23 16.66L62.37 17.34L63.57 23.5C64.1 26.23 64.85 28.9 65.82 31.49L58.34 31.49L40.53 31.49L6.52 31.49L6.52 43.55ZM68.5 18.99C75.46 18.18 81.9 14.9 86.64 9.74L87.33 8.99L88.03 9.74C92.77 14.9 99.21 18.18 106.17 18.99L109.52 19.38L108.8 23.05C107.82 28.11 106.04 32.96 103.51 37.45C100.19 43.36 95.37 48.67 89.59 52.81L87.33 54.42L85.1 52.82C79.03 48.47 74.04 42.85 70.67 36.56C68.4 32.32 66.79 27.77 65.87 23.05L65.16 19.38L68.5 18.99ZM56 33.84L56 68.17L42.88 68.17L42.88 33.84L56 33.84Z" fill="#949CA2" fill-opacity="1.000000" fill-rule="nonzero"/>
		<path id="path" d="M87.33 44.43C94.77 44.43 100.83 38.38 100.83 30.94C100.83 23.5 94.77 17.45 87.33 17.45C79.9 17.45 73.84 23.5 73.84 30.94C73.84 38.38 79.9 44.43 87.33 44.43ZM87.33 19.79C91.11 19.79 94.45 21.68 96.46 24.55L85.74 35.28L81.28 30.82L79.63 32.47L85.74 38.59L97.64 26.69C98.18 28 98.48 29.44 98.48 30.94C98.48 37.09 93.48 42.09 87.34 42.09C81.19 42.09 76.19 37.09 76.19 30.94C76.19 24.79 81.19 19.79 87.33 19.79Z" fill="#949CA2" fill-opacity="1.000000" fill-rule="nonzero"/>
		<path id="path" d="M96.79 53.42L98.21 55.29C99.51 54.3 100.81 53.13 102.07 51.82L100.37 50.2C99.2 51.43 97.99 52.51 96.79 53.42Z" fill="#949CA2" fill-opacity="1.000000" fill-rule="nonzero"/>
		<path id="path" d="M102.23 48.11L104.03 49.61C109.98 42.46 113.33 34.11 113.47 33.75L111.29 32.89C111.26 32.97 107.93 41.26 102.23 48.11Z" fill="#949CA2" fill-opacity="1.000000" fill-rule="nonzero"/>
		<path id="path" d="M35.84 37.27L12.66 37.27L12.66 60.45L35.84 60.45L35.84 37.27ZM33.5 58.11L15 58.11L15 39.61L33.5 39.61L33.5 58.11Z" fill="#949CA2" fill-opacity="1.000000" fill-rule="nonzero"/>
		<path id="path" d="M48.27 107.44L85.15 107.44L85.15 93.73L48.27 93.73L48.27 107.44ZM50.61 96.07L82.81 96.07L82.81 105.09L50.61 105.09L50.61 96.07Z" fill="#949CA2" fill-opacity="1.000000" fill-rule="nonzero"/>
		<rect id="rect" x="57.176758" y="99.414062" width="2.812500" height="2.343750" fill="#949CA2" fill-opacity="1.000000"/>
		<rect id="rect" x="62.801758" y="99.414062" width="2.812500" height="2.343750" fill="#949CA2" fill-opacity="1.000000"/>
		<rect id="rect" x="74.051758" y="99.414062" width="2.812500" height="2.343750" fill="#949CA2" fill-opacity="1.000000"/>
		<rect id="rect" x="68.426758" y="99.414062" width="2.812500" height="2.343750" fill="#949CA2" fill-opacity="1.000000"/>
		<rect id="rect" x="13.835938" y="63.979492" width="10.419844" height="2.343750" fill="#949CA2" fill-opacity="1.000000"/>
		<rect id="rect" x="13.835938" y="68.203125" width="10.419844" height="2.343750" fill="#949CA2" fill-opacity="1.000000"/>
		<rect id="rect" x="18.536133" y="43.077148" width="11.440083" height="2.343750" fill="#949CA2" fill-opacity="1.000000"/>
		<rect id="rect" x="18.536133" y="47.693848" width="11.440083" height="2.343750" fill="#949CA2" fill-opacity="1.000000"/>
	</g>
</svg>
