<svg width="21.500000" height="21.502930" viewBox="0 0 21.5 21.5029" fill="none" xmlns="http://www.w3.org/2000/svg" xmlns:xlink="http://www.w3.org/1999/xlink">
	<desc>
			Created with Pixso.
	</desc>
	<defs/>
	<path id="Слияние" d="M13.4102 0.222656C13.1133 0.519531 13.1133 0.986328 13.4102 1.2832L16.002 3.875L5.50977 3.875L8.08984 1.29395C8.38672 0.99707 8.38672 0.530273 8.08984 0.233398C7.79297 -0.0634766 7.32617 -0.0634766 7.0293 0.233398L3.38867 3.875L2.9707 3.875C2.56836 3.875 2.24023 3.89551 1.98438 3.93652C1.58984 4.00098 1.25586 4.12402 0.980469 4.30762C0.880859 4.37598 0.787109 4.45117 0.701172 4.53516C0.234375 4.99316 0 5.68945 0 6.625C0 7.19434 0.0644531 7.66504 0.195312 8.03809C0.316406 8.38086 0.496094 8.6582 0.732422 8.87109L0.732422 8.87109C0.785156 8.91699 0.839844 8.95996 0.896484 9C1.08984 9.13477 1.31836 9.2334 1.57812 9.29395L2.91992 17.5137C3.01562 18.0977 3.14648 18.5977 3.3125 19.0146C3.52148 19.5371 3.80078 19.9746 4.14844 20.3271C4.18945 20.3691 4.23242 20.4102 4.27734 20.4502C4.64062 20.7832 5.07812 21.0371 5.58984 21.2109C6.16016 21.4053 6.83398 21.5029 7.60938 21.5029L13.6406 21.5029C14.4688 21.5029 15.1719 21.4102 15.7461 21.2246C16.3125 21.042 16.7793 20.7637 17.1484 20.3877C17.1582 20.377 17.168 20.3662 17.1797 20.3555C17.502 20.0176 17.7578 19.5889 17.9473 19.0684C18.0723 18.7217 18.1934 18.25 18.3066 17.6543L19.9102 9.29688C20.1758 9.23633 20.4062 9.13672 20.6035 9C20.6602 8.95996 20.7148 8.91699 20.7676 8.87109L20.7676 8.87109C21.0039 8.6582 21.1836 8.38086 21.3047 8.03809C21.4355 7.66504 21.5 7.19434 21.5 6.625C21.5 5.68945 21.2656 4.99316 20.7988 4.53516C20.7129 4.45117 20.6191 4.37598 20.5195 4.30762C20.2441 4.12402 19.9102 4.00098 19.5156 3.93652C19.2598 3.89551 18.9316 3.875 18.5293 3.875L18.123 3.875L14.4727 0.222656C14.1738 -0.0742188 13.709 -0.0742188 13.4102 0.222656ZM18.3672 9.375L16.834 17.3721C16.7344 17.8896 16.6348 18.2842 16.5371 18.5566C16.4199 18.8789 16.2715 19.1338 16.0938 19.3203C15.8945 19.5283 15.625 19.6875 15.2852 19.7979C14.8613 19.9346 14.3125 20.0029 13.6406 20.0029L7.60938 20.0029C7 20.0029 6.48828 19.9326 6.07422 19.791C5.72461 19.6729 5.43945 19.5 5.2168 19.2734C5.00977 19.0645 4.83984 18.793 4.70703 18.459C4.58008 18.1426 4.47852 17.7471 4.40039 17.2725L3.11133 9.375L18.3672 9.375ZM2.9707 5.375C2.64844 5.375 2.40039 5.38965 2.22461 5.41797C2.04492 5.44629 1.9082 5.49219 1.81641 5.55469C1.60547 5.69531 1.5 6.05273 1.5 6.625C1.5 7.02441 1.53711 7.33008 1.61133 7.54102C1.65039 7.6543 1.69922 7.73047 1.75391 7.76953C1.8125 7.81055 1.91211 7.83887 2.05078 7.85645C2.17773 7.87207 2.40625 7.87891 2.73828 7.87598C2.83984 7.875 2.91797 7.875 2.9707 7.875L18.5293 7.875C18.582 7.875 18.6602 7.875 18.7617 7.87598C19.0938 7.87891 19.3223 7.87207 19.4492 7.85645C19.5879 7.83887 19.6875 7.81055 19.7461 7.76953C19.8008 7.73047 19.8496 7.6543 19.8887 7.54102C19.9629 7.33008 20 7.02441 20 6.625C20 6.05273 19.8945 5.69531 19.6836 5.55469C19.5918 5.49219 19.4551 5.44629 19.2754 5.41797C19.0996 5.38965 18.8516 5.375 18.5293 5.375L2.9707 5.375Z" clip-rule="evenodd" fill="#FFFFFF" fill-opacity="1.000000" fill-rule="evenodd"/>
</svg>
