<svg width="18.000000" height="18.000000" viewBox="0 0 18 18" fill="none" xmlns="http://www.w3.org/2000/svg" xmlns:xlink="http://www.w3.org/1999/xlink">
	<desc>
			Created with Pixso.
	</desc>
	<defs/>
	<path id="Vector" d="M2.37 5.58L9 9.41L15.57 5.6" stroke="#4BB616" stroke-opacity="1.000000" stroke-width="1.500000" stroke-linejoin="round" stroke-linecap="round"/>
	<path id="Vector" d="M9 9.4L9 16.2" stroke="#4BB616" stroke-opacity="1.000000" stroke-width="1.500000" stroke-linejoin="round" stroke-linecap="round"/>
	<path id="Vector" d="M3.44 4.08C2.53 4.58 1.79 5.84 1.79 6.87L1.79 11.11C1.79 12.15 2.53 13.41 3.44 13.91L7.44 16.14C8.3 16.61 9.7 16.61 10.55 16.14L14.56 13.91C15.47 13.41 16.21 12.15 16.21 11.11L16.21 6.87C16.21 5.84 15.47 4.58 14.56 4.08L10.55 1.85C9.69 1.38 8.3 1.38 7.44 1.86L3.44 4.08Z" stroke="#4BB616" stroke-opacity="1.000000" stroke-width="1.500000" stroke-linejoin="round"/>
	<g opacity="0.000000"/>
</svg>
