<svg width="18.000000" height="18.000000" viewBox="0 0 18 18" fill="none" xmlns="http://www.w3.org/2000/svg" xmlns:xlink="http://www.w3.org/1999/xlink">
	<desc>
			Created with Pixso.
	</desc>
	<defs/>
	<path id="Vector" d="M11.25 9C11.25 9.82 10.57 10.5 9.75 10.5L1.5 10.5L1.5 4.5C1.5 2.84 2.84 1.5 4.5 1.5L11.25 1.5L11.25 9Z" stroke="#EEB44D" stroke-opacity="1.000000" stroke-width="1.500000" stroke-linejoin="round"/>
	<path id="Vector" d="M16.5 12.75C16.5 13.99 15.49 15 14.25 15L13.5 15C13.5 14.17 12.82 13.5 12 13.5C11.17 13.5 10.5 14.17 10.5 15L7.5 15C7.5 14.17 6.82 13.5 6 13.5C5.17 13.5 4.5 14.17 4.5 15L3.75 15C2.5 15 1.5 13.99 1.5 12.75L1.5 10.5L9.75 10.5C10.57 10.5 11.25 9.82 11.25 9L11.25 3.75L12.62 3.75C13.17 3.75 13.66 4.04 13.93 4.5L15.21 6.75L14.25 6.75C13.83 6.75 13.5 7.08 13.5 7.5L13.5 9.75C13.5 10.16 13.83 10.5 14.25 10.5L16.5 10.5L16.5 12.75Z" stroke="#EEB44D" stroke-opacity="1.000000" stroke-width="1.500000" stroke-linejoin="round"/>
	<path id="Vector" d="M6 16.5C5.17 16.5 4.5 15.82 4.5 15C4.5 14.17 5.17 13.5 6 13.5C6.82 13.5 7.5 14.17 7.5 15C7.5 15.82 6.82 16.5 6 16.5Z" stroke="#EEB44D" stroke-opacity="1.000000" stroke-width="1.500000" stroke-linejoin="round"/>
	<path id="Vector" d="M12 16.5C11.17 16.5 10.5 15.82 10.5 15C10.5 14.17 11.17 13.5 12 13.5C12.82 13.5 13.5 14.17 13.5 15C13.5 15.82 12.82 16.5 12 16.5Z" stroke="#EEB44D" stroke-opacity="1.000000" stroke-width="1.500000" stroke-linejoin="round"/>
	<path id="Vector" d="M16.5 10.5L14.25 10.5C13.83 10.5 13.5 10.16 13.5 9.75L13.5 7.5C13.5 7.08 13.83 6.75 14.25 6.75L15.21 6.75L16.5 9L16.5 10.5Z" stroke="#EEB44D" stroke-opacity="1.000000" stroke-width="1.500000" stroke-linejoin="round"/>
	<g opacity="0.000000"/>
</svg>
