<svg width="120.000000" height="120.000000" viewBox="0 0 120 120" fill="none" xmlns="http://www.w3.org/2000/svg" xmlns:xlink="http://www.w3.org/1999/xlink">
	<desc>
			Created with Pixso.
	</desc>
	<defs>
		<clipPath id="clip44_808">
			<rect id="box-delivery-express-svgrepo-com" width="120.000000" height="120.000000" fill="white" fill-opacity="0"/>
		</clipPath>
	</defs>
	<g clip-path="url(#clip44_808)">
		<path id="path" d="M58.14 28.36C58.14 24.88 55.31 22.05 51.83 22.05C48.35 22.05 45.52 24.88 45.52 28.36C45.52 31.83 48.35 34.66 51.83 34.66C55.31 34.66 58.14 31.83 58.14 28.36ZM47.87 28.36C47.87 26.17 49.65 24.39 51.83 24.39C54.01 24.39 55.79 26.17 55.79 28.36C55.79 30.54 54.01 32.32 51.83 32.32C49.65 32.32 47.87 30.54 47.87 28.36Z" fill="#949CA2" fill-opacity="1.000000" fill-rule="nonzero"/>
		<path id="path" d="M52.71 46.58C53.79 45.35 63.3 34.44 63.3 28.49C63.3 22.16 58.15 17.02 51.83 17.02C45.51 17.02 40.36 22.16 40.36 28.49C40.36 34.44 49.87 45.35 50.95 46.58L51.83 47.57L52.71 46.58ZM42.71 28.49C42.71 23.45 46.8 19.36 51.83 19.36C56.86 19.36 60.96 23.45 60.96 28.49C60.96 32.38 55.01 40.24 51.83 44.01C48.65 40.24 42.71 32.39 42.71 28.49Z" fill="#949CA2" fill-opacity="1.000000" fill-rule="nonzero"/>
		<rect id="rect" x="10.709961" y="83.137695" width="11.295466" height="2.343750" fill="#949CA2" fill-opacity="1.000000"/>
		<rect id="rect" x="4.287109" y="83.137695" width="3.692343" height="2.343750" fill="#949CA2" fill-opacity="1.000000"/>
		<rect id="rect" x="15.187500" y="89.540039" width="6.817501" height="2.343750" fill="#949CA2" fill-opacity="1.000000"/>
		<rect id="rect" x="39.223633" y="65.655273" width="6.005391" height="2.343750" fill="#949CA2" fill-opacity="1.000000"/>
		<path id="path" d="M10.03 41.89L10.03 64.2L12.6 64.2L19.24 64.2L31.61 73.51C31.58 73.84 31.55 74.17 31.52 74.51C27.99 77.58 25.8 81.79 25.8 86.44L25.8 91.36L30.06 91.36C30.41 95.18 32.45 98.52 35.42 100.63L19 100.63L19 102.97L62.6 102.97L62.6 100.63L50.15 100.63C51.63 99.58 52.89 98.22 53.81 96.64L61.69 96.64L65.44 94.7C66.48 95.27 67.66 95.59 68.92 95.59L85.89 95.59L86.44 95.59L86.79 95.16C86.81 95.13 87.21 94.66 87.94 93.91C88.86 96.71 90.73 99.06 93.14 100.63L73.38 100.63L73.38 102.97L115.71 102.97L115.71 100.63L107.05 100.63C110.55 98.35 112.87 94.4 112.87 89.92C112.87 87.08 111.91 84.34 110.2 82.11C111.42 81.95 112.68 81.87 113.97 81.87C114.95 81.87 115.28 81.2 115.36 80.99C115.75 79.94 114.82 79.14 113.41 77.93C113.1 77.66 112.8 77.4 112.63 77.23C109.81 74.4 106.25 72.58 102.4 71.93L92.8 48.39L95.69 48.39L95.69 47.29L95.93 47.29C97.99 47.29 99.67 45.62 99.67 43.56L99.67 43.48C99.67 41.41 97.99 39.74 95.93 39.74L95.69 39.74L95.69 38.64L87.58 38.64C84.89 38.64 82.7 40.83 82.7 43.52L82.7 45.79C82.7 45.88 82.71 45.96 82.72 46.05L81.29 46.05L76.3 41.06L70.45 41.06L70.45 43.41L75.33 43.41L80.32 48.39L85.02 48.39L82.42 56.28L85.93 77.08C84.2 78.77 82.79 80.78 81.8 83.03L68.5 83.03C67.87 81.74 67.35 80.39 66.97 79C65.24 72.73 66.56 67.2 67.69 64.11C68.91 63.81 69.82 62.7 69.82 61.38C69.82 57.55 66.69 54.42 62.86 54.42L38.73 54.42C36.04 54.42 33.84 56.62 33.84 59.31C33.84 60.25 34.11 61.12 34.57 61.86L32.34 61.86L32.34 41.89L10.03 41.89ZM12.37 61.86L12.37 44.23L30 44.23L30 61.86L12.6 61.86L12.37 61.86ZM28.15 86.44C28.15 78.36 35.98 71.78 45.62 71.78L50.05 71.78C56.42 71.78 61.61 76.11 61.61 81.42L61.61 87.09L61.61 88.26L61.61 89.01L55.52 89.01C54.92 82.51 49.44 77.4 42.79 77.4C36.13 77.4 30.65 82.51 30.05 89.01L28.15 89.01L28.15 86.44ZM32.41 89.01C33 83.81 37.42 79.74 42.79 79.74C48.15 79.74 52.57 83.81 53.16 89.01L32.41 89.01ZM46.24 91.36C45.75 92.8 44.39 93.84 42.79 93.84C41.18 93.84 39.82 92.8 39.33 91.36L46.24 91.36ZM42.78 100.63C37.42 100.63 33 96.57 32.41 91.36L36.9 91.36C37.45 94.11 39.88 96.18 42.79 96.18C45.69 96.18 48.12 94.11 48.67 91.36L53.16 91.36C53.04 92.39 52.78 93.38 52.38 94.3L48.23 94.3L48.23 96.64L50.98 96.64C49.07 99.07 46.11 100.63 42.78 100.63ZM61.12 94.3L54.89 94.3C55.21 93.36 55.42 92.38 55.51 91.36L62.29 91.36C62.59 91.99 62.98 92.58 63.44 93.1L61.12 94.3ZM110.52 89.92C110.52 95.67 105.84 100.36 100.08 100.36C95.15 100.36 90.86 96.83 89.86 92.06C91.02 91.01 92.49 89.8 94.24 88.58C94.14 89.01 94.08 89.46 94.08 89.92C94.08 93.22 96.77 95.91 100.08 95.91C103.39 95.91 106.08 93.22 106.08 89.92C106.08 87.32 104.41 85.1 102.09 84.27C103.79 83.58 105.6 83 107.51 82.58C109.43 84.53 110.52 87.17 110.52 89.92ZM97.45 87.39L99.04 90.46L101.12 89.38L99.54 86.31C99.71 86.28 99.89 86.27 100.08 86.27C102.09 86.27 103.73 87.9 103.73 89.92C103.73 91.93 102.09 93.57 100.08 93.57C98.07 93.57 96.43 91.93 96.43 89.92C96.43 88.93 96.82 88.04 97.45 87.39ZM95.93 42.08C96.7 42.08 97.33 42.71 97.33 43.48L97.33 43.56C97.33 44.33 96.7 44.95 95.93 44.95L95.69 44.95L95.69 42.08L95.93 42.08ZM85.05 45.79L85.05 43.52C85.05 42.12 86.19 40.98 87.58 40.98L93.35 40.98L93.35 46.05L87.56 46.05L85.31 46.05C85.16 46.05 85.05 45.93 85.05 45.79ZM84.83 56.46L87.49 48.39L90.27 48.39L99.76 71.67C99.57 71.66 99.38 71.65 99.19 71.65C95.05 71.65 91.17 73.01 88.01 75.33L84.83 56.46ZM99.19 74C103.64 74 107.82 75.73 110.97 78.88C111.18 79.09 111.46 79.34 111.76 79.6C103.77 80.16 97.19 83.64 92.95 86.59C88.92 89.41 86.28 92.2 85.35 93.24L68.92 93.24C66.59 93.24 64.62 91.62 64.09 89.45L72.89 89.45L82.56 89.43L82.69 88.42C83.8 80.2 90.9 74 99.19 74ZM80.95 85.38C80.79 85.94 80.65 86.51 80.54 87.09L71.01 87.09C70.58 86.53 70.18 85.96 69.81 85.38L80.95 85.38ZM68.13 87.09L63.95 87.09L63.95 81.42C63.95 74.82 57.71 69.44 50.05 69.44L45.62 69.44C41.33 69.44 37.36 70.62 34.11 72.61C34.79 68.74 36.52 65.74 37.57 64.2L65.18 64.2C64.04 67.7 62.97 73.31 64.71 79.62C65.45 82.28 66.59 84.78 68.13 87.09ZM38.73 56.77L62.86 56.77C65.4 56.77 67.47 58.84 67.47 61.38C67.47 61.65 67.26 61.86 67 61.86L38.73 61.86C37.33 61.86 36.19 60.72 36.19 59.31C36.19 57.91 37.33 56.77 38.73 56.77ZM34.79 64.2C33.84 65.82 32.73 68.13 32.07 70.92L23.14 64.2L32.34 64.2L34.79 64.2Z" fill="#949CA2" fill-opacity="1.000000" fill-rule="nonzero"/>
		<rect id="rect" x="21.192383" y="47.031738" width="6.722813" height="2.343750" fill="#949CA2" fill-opacity="1.000000"/>
		<rect id="rect" x="65.885742" y="100.633301" width="4.060077" height="2.343750" fill="#949CA2" fill-opacity="1.000000"/>
		<rect id="rect" x="12.602539" y="100.633301" width="3.710858" height="2.343750" fill="#949CA2" fill-opacity="1.000000"/>
	</g>
</svg>
