<svg width="16.000000" height="16.000000" viewBox="0 0 16 16" fill="none" xmlns="http://www.w3.org/2000/svg" xmlns:xlink="http://www.w3.org/1999/xlink">
	<desc>
			Created with Pixso.
	</desc>
	<defs/>
	<rect id="vuesax/linear/candle-2" width="16.000000" height="16.000000" fill="#FFFFFF" fill-opacity="0"/>
	<path id="Vector" d="M10 11.66L14.66 11.66" stroke="#212121" stroke-opacity="1.000000" stroke-width="1.000000" stroke-linejoin="round" stroke-linecap="round"/>
	<path id="Vector" d="M1.33 11.66L3.33 11.66" stroke="#212121" stroke-opacity="1.000000" stroke-width="1.000000" stroke-linejoin="round" stroke-linecap="round"/>
	<path id="Vector" d="M12.66 4.33L14.66 4.33" stroke="#212121" stroke-opacity="1.000000" stroke-width="1.000000" stroke-linejoin="round" stroke-linecap="round"/>
	<path id="Vector" d="M1.33 4.33L6 4.33" stroke="#212121" stroke-opacity="1.000000" stroke-width="1.000000" stroke-linejoin="round" stroke-linecap="round"/>
	<path id="Vector" d="M8.66 9.66C9.4 9.66 10 10 10 11L10 12.33C10 13.33 9.4 13.66 8.66 13.66L4.66 13.66C3.93 13.66 3.33 13.33 3.33 12.33L3.33 11C3.33 10 3.93 9.66 4.66 9.66L8.66 9.66Z" stroke="#212121" stroke-opacity="1.000000" stroke-width="1.000000" stroke-linejoin="round"/>
	<path id="Vector" d="M11.33 2.33C12.06 2.33 12.66 2.66 12.66 3.66L12.66 5C12.66 6 12.06 6.33 11.33 6.33L7.33 6.33C6.59 6.33 6 6 6 5L6 3.66C6 2.66 6.59 2.33 7.33 2.33L11.33 2.33Z" stroke="#212121" stroke-opacity="1.000000" stroke-width="1.000000" stroke-linejoin="round"/>
	<g opacity="0.000000"/>
</svg>
