<svg width="26.000000" height="24.000000" viewBox="0 0 26 24" fill="none" xmlns="http://www.w3.org/2000/svg" xmlns:xlink="http://www.w3.org/1999/xlink">
	<desc>
			Created with Pixso.
	</desc>
	<defs/>
	<path id="Vector" d="M13.62 20.81C13.28 20.92 12.71 20.92 12.37 20.81C9.48 19.82 3 15.68 3 8.68C3 5.59 5.48 3.09 8.55 3.09C10.37 3.09 11.98 3.98 13 5.33C14.01 3.98 15.62 3.09 17.44 3.09C20.51 3.09 23 5.59 23 8.68C23 15.68 16.51 19.82 13.62 20.81Z" fill="#FFFFFF" fill-opacity="1.000000" fill-rule="nonzero"/>
	<path id="Vector" d="M12.37 20.81C9.48 19.82 3 15.68 3 8.68C3 5.59 5.48 3.09 8.55 3.09C10.37 3.09 11.98 3.98 13 5.33C14.01 3.98 15.62 3.09 17.44 3.09C20.51 3.09 23 5.59 23 8.68C23 15.68 16.51 19.82 13.62 20.81C13.28 20.92 12.71 20.92 12.37 20.81Z" stroke="#FFFFFF" stroke-opacity="1.000000" stroke-width="6.000000"/>
	<path id="Vector" d="M13.62 20.81C13.28 20.92 12.71 20.92 12.37 20.81C9.48 19.82 3 15.68 3 8.68C3 5.59 5.48 3.09 8.55 3.09C10.37 3.09 11.98 3.98 13 5.33C14.01 3.98 15.62 3.09 17.44 3.09C20.51 3.09 23 5.59 23 8.68C23 15.68 16.51 19.82 13.62 20.81Z" fill="#EB2819" fill-opacity="1.000000" fill-rule="nonzero"/>
	<path id="Vector" d="M12.37 20.81C9.48 19.82 3 15.68 3 8.68C3 5.59 5.48 3.09 8.55 3.09C10.37 3.09 11.98 3.98 13 5.33C14.01 3.98 15.62 3.09 17.44 3.09C20.51 3.09 23 5.59 23 8.68C23 15.68 16.51 19.82 13.62 20.81C13.28 20.92 12.71 20.92 12.37 20.81Z" stroke="#EB2819" stroke-opacity="1.000000" stroke-width="2.000000" stroke-linejoin="round"/>
	<g opacity="0.000000"/>
</svg>
