<svg width="24.000000" height="24.000000" viewBox="0 0 24 24" fill="none" xmlns="http://www.w3.org/2000/svg" xmlns:xlink="http://www.w3.org/1999/xlink">
	<desc>
			Created with Pixso.
	</desc>
	<defs/>
	<path id="Vector" d="M5 5.81L8.81 1.99" stroke="#212121" stroke-opacity="0.800000" stroke-width="1.500000" stroke-linejoin="round" stroke-linecap="round"/>
	<path id="Vector" d="M15.19 2L19 5.8" stroke="#212121" stroke-opacity="0.800000" stroke-width="1.500000" stroke-linejoin="round" stroke-linecap="round"/>
	<path id="Vector" d="M4.21 5.85L19.78 5.85C21 5.85 22 6 22 7.85C22 10 21 9.85 19.78 9.85L4.21 9.85C2.99 9.85 2 10 2 7.85C2 6 2.99 5.85 4.21 5.85Z" stroke="#212121" stroke-opacity="0.800000" stroke-width="1.500000"/>
	<path id="Vector" d="M9.75 14L9.75 17.54" stroke="#212121" stroke-opacity="0.800000" stroke-width="1.500000" stroke-linecap="round"/>
	<path id="Vector" d="M14.36 14L14.36 17.54" stroke="#212121" stroke-opacity="0.800000" stroke-width="1.500000" stroke-linecap="round"/>
	<path id="Vector" d="M3.5 10L4.91 18.64C5.23 20.58 6 22 8.86 22L14.88 22C18 22 18.45 20.64 18.82 18.76L20.5 10" stroke="#212121" stroke-opacity="0.800000" stroke-width="1.500000" stroke-linecap="round"/>
	<g opacity="0.000000"/>
</svg>
