<svg width="24.000000" height="24.000000" viewBox="0 0 24 24" fill="none" xmlns="http://www.w3.org/2000/svg" xmlns:xlink="http://www.w3.org/1999/xlink">
	<desc>
			Created with Pixso.
	</desc>
	<defs/>
	<path id="Vector" d="M21 5.98C17.66 5.65 14.32 5.48 10.98 5.48C9 5.48 7.01 5.58 5.03 5.78L3 5.98" stroke="#949CA2" stroke-opacity="1.000000" stroke-width="2.000000" stroke-linejoin="round" stroke-linecap="round"/>
	<path id="Vector" d="M8.5 4.97L8.72 3.66C8.88 2.71 9 2 10.68 2L13.31 2C15 2 15.13 2.75 15.27 3.66L15.5 4.97" stroke="#949CA2" stroke-opacity="1.000000" stroke-width="2.000000" stroke-linejoin="round" stroke-linecap="round"/>
	<path id="Vector" d="M18.84 9.14L18.2 19.21C18.08 20.78 18 22 15.21 22L8.79 22C6 22 5.91 20.78 5.8 19.21L5.15 9.14" stroke="#949CA2" stroke-opacity="1.000000" stroke-width="2.000000" stroke-linejoin="round" stroke-linecap="round"/>
	<path id="Vector" d="M10.33 16.5L13.66 16.5" stroke="#949CA2" stroke-opacity="1.000000" stroke-width="2.000000" stroke-linejoin="round" stroke-linecap="round"/>
	<path id="Vector" d="M9.5 12.5L14.5 12.5" stroke="#949CA2" stroke-opacity="1.000000" stroke-width="2.000000" stroke-linejoin="round" stroke-linecap="round"/>
	<g opacity="0.000000"/>
</svg>
