<svg width="32.000000" height="32.000000" viewBox="0 0 32 32" fill="none" xmlns="http://www.w3.org/2000/svg" xmlns:xlink="http://www.w3.org/1999/xlink">
	<desc>
			Created with Pixso.
	</desc>
	<defs/>
	<rect id="фрейм 144" rx="8.000000" width="32.000000" height="32.000000" fill="#212121" fill-opacity="0.800000"/>
	<path id="Vector" d="M22.32 9.27C20.67 7.62 18.48 6.72 16.15 6.71C11.34 6.71 7.43 10.63 7.43 15.44C7.43 16.97 7.83 18.47 8.59 19.8L7.36 24.31L11.98 23.1C13.25 23.8 14.69 24.16 16.15 24.16L16.15 24.16C20.96 24.16 24.87 20.25 24.87 15.44C24.87 13.11 23.97 10.92 22.32 9.27ZM20.13 17.26C19.91 17.15 18.84 16.63 18.64 16.55C18.44 16.48 18.29 16.44 18.15 16.66C18 16.88 17.58 17.37 17.46 17.52C17.33 17.66 17.2 17.68 16.98 17.57C16.95 17.55 16.9 17.53 16.84 17.51C16.53 17.37 15.93 17.11 15.23 16.49C14.58 15.91 14.15 15.2 14.02 14.98C13.89 14.76 14.01 14.64 14.12 14.53C14.18 14.47 14.26 14.38 14.33 14.29C14.37 14.24 14.41 14.2 14.44 14.15C14.53 14.05 14.57 13.96 14.63 13.85C14.64 13.83 14.65 13.81 14.66 13.79C14.73 13.64 14.7 13.52 14.64 13.41C14.61 13.33 14.4 12.83 14.21 12.38C14.12 12.15 14.03 11.93 13.97 11.79C13.81 11.41 13.66 11.42 13.53 11.42C13.51 11.42 13.5 11.42 13.48 11.42C13.35 11.41 13.21 11.41 13.06 11.41C12.92 11.41 12.68 11.46 12.48 11.68C12.47 11.69 12.45 11.71 12.44 11.73C12.21 11.97 11.72 12.5 11.72 13.5C11.72 14.57 12.5 15.6 12.61 15.75L12.61 15.75C12.62 15.76 12.63 15.78 12.65 15.81C12.91 16.18 14.29 18.16 16.33 19.04C16.85 19.27 17.26 19.4 17.57 19.5C18.1 19.67 18.57 19.64 18.95 19.59C19.36 19.53 20.24 19.06 20.42 18.55C20.6 18.04 20.6 17.61 20.54 17.52C20.5 17.44 20.4 17.39 20.24 17.32C20.21 17.3 20.17 17.28 20.13 17.26Z" fill="#FFFFFF" fill-opacity="1.000000" fill-rule="evenodd"/>
</svg>
