<svg width="18.599609" height="17.267090" viewBox="0 0 18.5996 17.2671" fill="none" xmlns="http://www.w3.org/2000/svg" xmlns:xlink="http://www.w3.org/1999/xlink">
	<desc>
			Created with Pixso.
	</desc>
	<defs/>
	<path id="Vector" d="M17.65 12.29C17.19 12.06 14.94 10.95 14.52 10.8C14.11 10.65 13.8 10.57 13.5 11.03C13.19 11.49 12.31 12.52 12.05 12.82C11.78 13.13 11.51 13.17 11.05 12.94C10.98 12.9 10.88 12.85 10.75 12.8C10.11 12.52 8.84 11.97 7.37 10.66C6.01 9.45 5.1 7.95 4.83 7.49C4.56 7.04 4.8 6.79 5.03 6.56C5.17 6.42 5.32 6.23 5.48 6.04C5.56 5.94 5.64 5.85 5.71 5.76C5.91 5.53 5.99 5.36 6.11 5.13C6.13 5.09 6.15 5.04 6.17 5C6.33 4.69 6.25 4.42 6.13 4.19C6.06 4.04 5.62 2.99 5.23 2.03C5.04 1.55 4.85 1.1 4.72 0.8C4.4 0.01 4.06 0.01 3.8 0.01C3.76 0.01 3.73 0.01 3.69 0.01C3.43 0 3.12 0 2.82 0C2.51 0 2.02 0.11 1.6 0.57C1.57 0.6 1.54 0.63 1.51 0.66C1.03 1.17 0 2.28 0 4.39C0 6.63 1.63 8.8 1.86 9.12L1.86 9.12C1.88 9.14 1.91 9.18 1.94 9.23C2.49 10.02 5.39 14.18 9.68 16.03C10.77 16.5 11.62 16.78 12.29 16.99C13.39 17.34 14.38 17.29 15.17 17.17C16.05 17.04 17.88 16.07 18.26 15C18.64 13.93 18.64 13.01 18.53 12.82C18.44 12.67 18.22 12.56 17.9 12.41C17.82 12.37 17.74 12.33 17.65 12.29Z" fill="#FFFFFF" fill-opacity="1.000000" fill-rule="evenodd"/>
</svg>
