<svg width="56.000000" height="56.000000" viewBox="0 0 56 56" fill="none" xmlns="http://www.w3.org/2000/svg" xmlns:xlink="http://www.w3.org/1999/xlink">
	<desc>
			Created with Pixso.
	</desc>
	<defs/>
	<rect id="vuesax/linear/bag" width="24.000000" height="24.000000" transform="translate(16.000000 16.000000)" fill="#FFFFFF" fill-opacity="0"/>
	<path id="Vector" d="M21 21.81L24.81 18" stroke="#EB2819" stroke-opacity="1.000000" stroke-width="1.500000" stroke-linejoin="round" stroke-linecap="round"/>
	<path id="Vector" d="M31.19 18L35 21.8" stroke="#EB2819" stroke-opacity="1.000000" stroke-width="1.500000" stroke-linejoin="round" stroke-linecap="round"/>
	<path id="Vector" d="M20.22 21.85L35.77 21.85C37 21.85 38 22 38 23.85C38 26 37 25.85 35.77 25.85L20.22 25.85C18.99 25.85 18 26 18 23.85C18 22 18.99 21.85 20.22 21.85Z" stroke="#EB2819" stroke-opacity="1.000000" stroke-width="1.500000"/>
	<path id="Vector" d="M25.75 30L25.75 33.54" stroke="#EB2819" stroke-opacity="1.000000" stroke-width="1.500000" stroke-linecap="round"/>
	<path id="Vector" d="M30.35 30L30.35 33.54" stroke="#EB2819" stroke-opacity="1.000000" stroke-width="1.500000" stroke-linecap="round"/>
	<path id="Vector" d="M19.5 26L20.91 34.64C21.23 36.58 22 38 24.85 38L30.89 38C34 38 34.46 36.64 34.82 34.75L36.5 26" stroke="#EB2819" stroke-opacity="1.000000" stroke-width="1.500000" stroke-linecap="round"/>
	<g opacity="0.000000"/>
	<rect id="фрейм 205" rx="11.250000" width="54.500000" height="54.500000" transform="translate(0.750000 0.750000)" stroke="#EB2819" stroke-opacity="1.000000" stroke-width="1.500000"/>
</svg>
