<svg width="32.000000" height="32.000000" viewBox="0 0 32 32" fill="none" xmlns="http://www.w3.org/2000/svg" xmlns:xlink="http://www.w3.org/1999/xlink">
	<desc>
			Created with Pixso.
	</desc>
	<defs/>
	<rect id="фрейм 146" rx="8.000000" width="32.000000" height="32.000000" fill="#212121" fill-opacity="0.800000"/>
	<path id="Vector" d="M23.09 10.16C23.22 8.75 21.72 9.33 21.72 9.33C20.62 9.79 19.48 10.25 18.33 10.72C14.77 12.17 11.08 13.68 7.94 15.16C6.24 15.78 7.24 16.41 7.24 16.41L9.94 17.24C11.18 17.61 11.85 17.2 11.85 17.2L17.66 13.24C19.73 11.83 19.23 12.99 18.74 13.49L14.38 17.65C13.71 18.24 14.05 18.74 14.34 18.99C15.16 19.71 17.19 21.04 18.07 21.62C18.3 21.77 18.45 21.87 18.49 21.9C18.69 22.07 19.82 22.81 20.56 22.65C21.31 22.48 21.39 21.52 21.39 21.52L22.39 14.99C22.54 13.86 22.71 12.77 22.85 11.89C22.98 11.07 23.07 10.45 23.09 10.16Z" fill="#FFFFFF" fill-opacity="1.000000" fill-rule="evenodd"/>
</svg>
