<svg width="21.500000" height="21.501465" viewBox="0 0 21.5 21.5015" fill="none" xmlns="http://www.w3.org/2000/svg" xmlns:xlink="http://www.w3.org/1999/xlink">
	<desc>
			Created with Pixso.
	</desc>
	<defs/>
	<path id="Слияние" d="M15.2354 20.5225C15.7314 20.2949 16.2046 20.0327 16.6553 19.7363C17.2617 19.3374 17.8271 18.8755 18.3516 18.3516C18.8755 17.8271 19.3374 17.2617 19.7368 16.6548C20.0923 16.1143 20.3984 15.541 20.6548 14.9346C20.9087 14.335 21.105 13.7227 21.2446 13.0977C21.415 12.3345 21.5 11.5518 21.5 10.75C21.5 9.94824 21.415 9.16602 21.2446 8.40234C21.105 7.77734 20.9087 7.16504 20.6548 6.56543C20.3984 5.95898 20.0923 5.38574 19.7363 4.84473C19.3374 4.23828 18.8755 3.67285 18.3516 3.14844C17.8271 2.62451 17.2617 2.1626 16.6553 1.76318C16.1143 1.40771 15.541 1.10156 14.9346 0.845215C14.335 0.591309 13.7227 0.39502 13.0977 0.255371C12.334 0.0849609 11.5518 0 10.75 0C9.94824 0 9.16602 0.0849609 8.40234 0.255371C7.77734 0.39502 7.16504 0.591309 6.56543 0.845215C5.95898 1.10156 5.38574 1.40771 4.84473 1.76367C4.23828 2.1626 3.67285 2.62451 3.14844 3.14844C2.62451 3.67285 2.1626 4.23828 1.76367 4.84473C1.40771 5.38574 1.10156 5.95898 0.845215 6.56543C0.591309 7.16504 0.39502 7.77734 0.255371 8.40234C0.0849609 9.16602 0 9.94824 0 10.75C0 11.5518 0.0849609 12.334 0.255371 13.0977C0.39502 13.7227 0.591309 14.335 0.845215 14.9346C1.10156 15.541 1.40771 16.1143 1.76367 16.6553C2.1626 17.2617 2.62451 17.8271 3.14844 18.3516C3.67285 18.8755 4.23828 19.3374 4.84473 19.7363C5.29492 20.0327 5.76709 20.2939 6.26221 20.521C6.4375 20.6021 6.61523 20.6777 6.7959 20.7495C7.33496 20.9634 7.88379 21.1318 8.44287 21.2544C9.19385 21.4189 9.96289 21.5015 10.75 21.5015C11.5371 21.5015 12.3062 21.4189 13.0571 21.2544C13.6162 21.1318 14.165 20.9634 14.7041 20.7495C14.8838 20.6782 15.061 20.6025 15.2354 20.5225ZM17.8193 16.7173C18.063 16.4297 18.2871 16.1294 18.4922 15.8169C18.7944 15.3555 19.0552 14.8667 19.2734 14.3501C19.4873 13.8442 19.6543 13.3271 19.7739 12.7993C19.9248 12.1333 20 11.4502 20 10.75C20 10.0498 19.9248 9.3667 19.7739 8.70068C19.6543 8.17285 19.4873 7.65576 19.2734 7.1499C19.0552 6.6333 18.7944 6.14453 18.4922 5.68311C18.1465 5.15576 17.7461 4.66455 17.2905 4.20947C16.8354 3.75391 16.3442 3.35352 15.8169 3.00781C15.3555 2.70557 14.8667 2.44482 14.3501 2.22656C13.8442 2.0127 13.3271 1.8457 12.7993 1.72607C12.1333 1.5752 11.4502 1.5 10.75 1.5C10.0498 1.5 9.3667 1.5752 8.70068 1.72607C8.17285 1.8457 7.65576 2.0127 7.1499 2.22656C6.6333 2.44482 6.14453 2.70557 5.68311 3.00781C5.15576 3.35352 4.66455 3.75391 4.20947 4.20947C3.75391 4.66455 3.35352 5.15576 3.00781 5.68311C2.70557 6.14453 2.44482 6.6333 2.22656 7.1499C2.0127 7.65576 1.8457 8.17285 1.72607 8.70068C1.5752 9.3667 1.5 10.0498 1.5 10.75C1.5 11.4502 1.5752 12.1333 1.72607 12.7993C1.8457 13.3271 2.0127 13.8442 2.22656 14.3501C2.44482 14.8667 2.70557 15.3555 3.00781 15.8169C3.21289 16.1294 3.43701 16.4297 3.68066 16.7173C3.74951 16.5894 3.82568 16.4629 3.91016 16.3384C4.26904 15.8081 4.75293 15.3384 5.36133 14.9292C6.10449 14.4355 6.95459 14.0601 7.91211 13.8032C8.82373 13.5586 9.77197 13.436 10.7573 13.436C11.7432 13.436 12.6904 13.5586 13.5996 13.8032C14.5552 14.0605 15.4009 14.4351 16.1372 14.9277C16.7466 15.3379 17.231 15.8081 17.5898 16.3384C17.6743 16.4629 17.7505 16.5894 17.8193 16.7173ZM6.91406 19.1699C6.9917 19.2056 7.07031 19.2397 7.1499 19.2734C7.65576 19.4873 8.17285 19.6543 8.70068 19.7739C9.3667 19.9248 10.0498 20 10.75 20C11.4502 20 12.1333 19.9248 12.7993 19.7739C13.3271 19.6543 13.8442 19.4873 14.3501 19.2734C14.4302 19.2397 14.5093 19.2051 14.5879 19.1689C14.8867 19.0327 15.1768 18.8809 15.4575 18.7139L15.458 18.7139C15.8833 18.4609 16.2881 18.1733 16.6724 17.8511C16.605 17.6235 16.4966 17.3994 16.3477 17.1792C16.0977 16.8101 15.7495 16.4751 15.3027 16.1748C14.7036 15.7734 14.0059 15.4658 13.21 15.252C12.4282 15.0415 11.6108 14.936 10.7573 14.936C9.90381 14.936 9.08496 15.0415 8.30078 15.252C7.50146 15.4663 6.80078 15.7734 6.19873 16.1733C5.75146 16.4746 5.40234 16.8101 5.15234 17.1792C5.00342 17.3994 4.89502 17.6235 4.82764 17.8511C5.21191 18.1733 5.61719 18.4609 6.04248 18.7139L6.04248 18.7139C6.32422 18.8813 6.61426 19.0332 6.91406 19.1699ZM9.75879 12.1621C10.0332 12.231 10.3149 12.2705 10.6045 12.2803C10.6143 12.2808 10.6245 12.2808 10.6348 12.2808C10.6445 12.2808 10.6543 12.2808 10.6641 12.2803C10.6733 12.2798 10.6831 12.2788 10.6929 12.2783L10.6934 12.2783L10.6948 12.2778C10.7041 12.2773 10.7139 12.2764 10.7231 12.2749C10.7417 12.2729 10.7554 12.272 10.7642 12.2734C10.7749 12.2749 10.7856 12.2764 10.7964 12.2773L10.7969 12.2773C10.8076 12.2783 10.8184 12.2793 10.8296 12.2798C10.8403 12.2803 10.8511 12.2808 10.8623 12.2808L10.8628 12.2808C10.8735 12.2808 10.8848 12.2808 10.8955 12.2803C11.1885 12.2705 11.4741 12.23 11.7515 12.1597L11.752 12.1597C11.9775 12.1021 12.1982 12.0244 12.4141 11.9268C12.6333 11.8276 12.8403 11.7109 13.0352 11.5767L13.0352 11.5767L13.0352 11.5767C13.2539 11.4258 13.4575 11.2529 13.6455 11.0581C13.8252 10.8726 13.9844 10.6733 14.123 10.4609C14.2593 10.2524 14.3755 10.0312 14.4727 9.79688C14.5537 9.6001 14.6191 9.39941 14.6685 9.19531C14.7407 8.89209 14.7783 8.58057 14.7798 8.26074C14.7798 7.9668 14.7495 7.67969 14.688 7.39893L14.688 7.39893C14.6353 7.1582 14.5601 6.92285 14.4629 6.69238C14.3662 6.46484 14.251 6.24902 14.1172 6.0459L14.1172 6.0459C13.9678 5.81934 13.7949 5.60791 13.5991 5.41162C13.4028 5.21582 13.1914 5.04297 12.9648 4.89355L12.9648 4.89355L12.9648 4.89355C12.7617 4.75977 12.5464 4.64453 12.3184 4.54834C12.0879 4.45068 11.8525 4.37549 11.6123 4.32275L11.6123 4.32275C11.3315 4.26172 11.0439 4.23096 10.75 4.23096C10.4429 4.23096 10.1431 4.26416 9.85107 4.33057L9.85107 4.33057C9.62158 4.38281 9.39746 4.45508 9.17773 4.54785C8.94678 4.64551 8.72852 4.7627 8.52295 4.89893L8.52246 4.89893C8.29883 5.04736 8.09033 5.21826 7.89648 5.41211C7.70459 5.60449 7.53516 5.81201 7.38818 6.03369L7.38818 6.03369L7.38818 6.03369C7.25098 6.24072 7.1333 6.46094 7.03564 6.69336C6.94092 6.91797 6.86768 7.14746 6.81543 7.38135L6.81543 7.38135C6.75195 7.66748 6.72021 7.96045 6.72021 8.26074C6.72021 8.55615 6.75098 8.84521 6.81299 9.12695L6.81299 9.12744L6.81299 9.12744C6.86279 9.35498 6.93262 9.57764 7.02295 9.7959C7.11621 10.0225 7.22803 10.2363 7.3584 10.439L7.3584 10.439C7.50049 10.6597 7.66504 10.8662 7.85107 11.0586C8.03613 11.25 8.23584 11.4199 8.45068 11.5684L8.45068 11.5684C8.64941 11.7065 8.86084 11.8257 9.08496 11.9272C9.3042 12.0264 9.52881 12.1045 9.75879 12.1621ZM10.6074 10.7793C10.4336 10.77 10.2646 10.7441 10.1001 10.7007L10.0996 10.7007C9.96436 10.6655 9.83203 10.6187 9.70264 10.5601C9.56543 10.498 9.43555 10.4253 9.31348 10.3413C9.17578 10.2466 9.04736 10.1382 8.92871 10.0156C8.80908 9.8916 8.70361 9.75879 8.61328 9.61621C8.53418 9.49268 8.46631 9.36182 8.40967 9.22412C8.35742 9.09717 8.31592 8.96826 8.28516 8.83643L8.28516 8.83594L8.28516 8.83545C8.2417 8.64893 8.22021 8.45752 8.22021 8.26074C8.22021 8.06152 8.24219 7.86768 8.28662 7.67871L8.28662 7.67871L8.28662 7.67773C8.31885 7.54102 8.3623 7.40723 8.41748 7.27588C8.47803 7.1333 8.5498 6.99805 8.63379 6.87061L8.63379 6.87061C8.72705 6.72803 8.83545 6.59521 8.9585 6.47168C9.08301 6.34717 9.21729 6.2373 9.36133 6.14307C9.4873 6.06006 9.62061 5.98926 9.76172 5.92969C9.88818 5.87598 10.0176 5.8335 10.1494 5.80127L10.1494 5.80127L10.1494 5.80127L10.1494 5.80127C10.3438 5.75439 10.5439 5.73096 10.75 5.73096C10.9429 5.73096 11.1304 5.75195 11.3135 5.79346L11.3145 5.79346C11.457 5.82617 11.5967 5.87158 11.7339 5.92969C11.8716 5.98779 12.0024 6.05713 12.1265 6.1377C12.2739 6.23389 12.4111 6.34521 12.5386 6.47266C12.6655 6.59961 12.7769 6.73682 12.873 6.88428L12.873 6.88428C12.9536 7.0083 13.0229 7.13916 13.0815 7.27734C13.1396 7.41406 13.1846 7.5542 13.2173 7.69727L13.2173 7.69727C13.2593 7.88037 13.2798 8.06836 13.2798 8.26074C13.2788 8.44141 13.2598 8.61816 13.2222 8.79102L13.2222 8.79102C13.1899 8.93799 13.145 9.08203 13.0864 9.22314C13.0259 9.36963 12.9531 9.5083 12.8682 9.63867L12.8682 9.63867L12.8682 9.63867C12.7808 9.77295 12.6802 9.89844 12.5669 10.0161C12.4448 10.1421 12.313 10.2539 12.1709 10.3501C12.0527 10.4307 11.9277 10.5005 11.7954 10.5601C11.6699 10.6172 11.5415 10.6631 11.4102 10.6982L11.4102 10.6982C11.2432 10.7427 11.0718 10.7695 10.8955 10.7793C10.8018 10.7705 10.7056 10.771 10.6074 10.7793Z" clip-rule="evenodd" fill="#212121" fill-opacity="1.000000" fill-rule="evenodd"/>
</svg>
