<svg width="120.000000" height="120.000000" viewBox="0 0 120 120" fill="none" xmlns="http://www.w3.org/2000/svg" xmlns:xlink="http://www.w3.org/1999/xlink">
	<desc>
			Created with Pixso.
	</desc>
	<defs>
		<clipPath id="clip44_820">
			<rect id="delivery-international-international-ems-svgrepo-com" width="120.000000" height="120.000000" fill="white" fill-opacity="0"/>
		</clipPath>
	</defs>
	<g clip-path="url(#clip44_820)">
		<rect id="rect" x="36.309570" y="21.464844" width="3.237422" height="2.343750" fill="#949CA2" fill-opacity="1.000000"/>
		<rect id="rect" x="9.591797" y="38.778809" width="4.734844" height="2.343750" fill="#949CA2" fill-opacity="1.000000"/>
		<rect id="rect" x="3.697266" y="71.276367" width="3.903750" height="2.343750" fill="#949CA2" fill-opacity="1.000000"/>
		<rect id="rect" x="10.422852" y="78.601074" width="3.903750" height="2.343750" fill="#949CA2" fill-opacity="1.000000"/>
		<path id="path" d="M100.98 33.65C96.25 28.8 90.33 25.13 83.7 23.09C94.85 17.47 103.75 16.49 107.81 20.54C110.57 23.31 111.02 28.45 109.1 35.12L107.29 31.15L105.16 32.12L108.62 39.75L116.3 36.27L115.33 34.13L111.29 35.96C113.56 28.25 112.94 22.36 109.46 18.88C104.29 13.71 93.68 14.93 80.33 22.22C78.03 21.73 75.66 21.43 73.24 21.34C73.03 21.32 72.83 21.31 72.62 21.31C72.53 21.31 72.44 21.32 72.36 21.32C72.16 21.32 71.96 21.31 71.75 21.31C71.41 21.31 71.06 21.32 70.72 21.33C70.24 21.34 69.77 21.36 69.29 21.39L42.52 21.39L42.52 23.73L57.9 23.73C52.04 25.85 46.79 29.27 42.52 33.64C41.96 34.22 41.42 34.81 40.89 35.42C39.96 36.49 39.08 37.61 38.27 38.77L18.68 38.77L18.68 41.12L36.74 41.12C35.87 42.55 35.09 44.04 34.41 45.58L25.73 45.58L25.73 47.93L33.45 47.93C31.79 52.37 30.88 57.17 30.88 62.19C30.88 64.88 31.14 67.52 31.64 70.07C31.41 70.47 31.18 70.87 30.96 71.27L11.3 71.27L11.3 73.62L29.7 73.62C28.83 75.32 28.04 76.98 27.37 78.6L17.85 78.6L17.85 80.94L26.44 80.94C25.5 83.48 24.83 85.88 24.45 88.1C23.48 93.81 24.44 98.3 27.24 101.1C29.35 103.21 32.32 104.27 36.09 104.27C36.89 104.27 37.72 104.22 38.6 104.13C43.06 103.64 48.25 101.91 54.02 99.01C58.65 101.25 63.78 102.64 69.18 102.98C69.68 103.01 70.2 103.04 70.7 103.05C71.05 103.06 71.4 103.06 71.75 103.06C71.97 103.06 72.19 103.06 72.41 103.05C72.48 103.06 72.55 103.06 72.62 103.06C72.81 103.06 73 103.05 73.2 103.03C81.06 102.76 88.6 100.26 95.06 95.76C97.4 94.14 99.54 92.3 101.46 90.27C101.67 90.05 101.87 89.83 102.07 89.61C105.39 85.95 108.02 81.71 109.84 77.05L107.66 76.2C106.31 79.66 104.51 82.83 102.35 85.66C98.23 83.5 93.16 81.84 87.53 80.76C88.62 75.44 89.24 69.42 89.29 62.99L110.27 62.99C110.21 66.1 109.78 69.17 108.98 72.14L111.25 72.75C112.16 69.32 112.63 65.77 112.63 62.19C112.63 51.96 108.85 42.59 102.62 35.42C102.09 34.81 101.55 34.22 100.98 33.65ZM57.64 80.46C56.88 80.59 56.12 80.73 55.38 80.88C50.01 81.96 45.17 83.57 41.2 85.64C37.81 81.23 35.36 76.08 34.12 70.47C35.58 68 37.21 65.5 38.99 62.99L55.94 62.99C55.94 63.03 55.94 63.08 55.94 63.12C55.95 63.46 55.95 63.81 55.96 64.15C55.95 64.17 55.96 64.18 55.96 64.2C55.96 64.5 55.97 64.8 55.98 65.1C55.99 65.44 56 65.77 56.01 66.11C56.01 66.17 56.02 66.24 56.02 66.3C56.04 66.75 56.06 67.21 56.08 67.66C56.1 67.99 56.12 68.32 56.14 68.65C56.4 72.84 56.91 76.82 57.64 80.46ZM82.49 34.54C83.27 36.53 83.95 38.71 84.54 41.03C80.48 41.66 76.16 41.99 71.75 41.99C67.94 41.99 64.2 41.74 60.63 41.27C60.81 40.57 60.99 39.88 61.18 39.21C61.25 38.97 61.32 38.74 61.39 38.5C66.3 34.22 71.31 30.46 76.24 27.34C76.76 27.02 77.27 26.7 77.77 26.39C79.5 28.25 81.11 31.01 82.49 34.54ZM86.78 56.33C86.8 56.66 86.82 56.99 86.84 57.32C86.85 57.65 86.87 57.98 86.88 58.31C86.88 58.34 86.88 58.37 86.88 58.39C86.91 59.14 86.93 59.89 86.94 60.65L58.29 60.65C58.38 54.58 59.01 48.77 60.11 43.56C63.84 44.07 67.76 44.34 71.75 44.34C75.53 44.34 79.24 44.1 82.79 43.64C83.56 43.54 84.32 43.43 85.07 43.31C85.94 47.34 86.52 51.73 86.78 56.33ZM85.22 80.35C84.47 80.23 83.71 80.12 82.94 80.02C79.34 79.56 75.59 79.31 71.75 79.31C67.7 79.31 63.74 79.58 59.96 80.1C58.91 74.87 58.33 69.05 58.28 62.99L86.95 62.99C86.95 63.03 86.95 63.06 86.94 63.1C86.94 63.45 86.94 63.8 86.93 64.14C86.92 64.53 86.91 64.91 86.9 65.29C86.89 65.62 86.88 65.95 86.87 66.28C86.67 71.25 86.11 76.01 85.22 80.35ZM74.62 25.59C70.72 28.08 66.79 30.96 62.89 34.16C65.28 28.22 68.34 24.54 71.45 23.8C71.76 23.72 72.07 23.68 72.38 23.66C72.62 23.67 72.85 23.67 73.08 23.68C74.04 23.77 74.99 24.14 75.93 24.77C75.49 25.04 75.06 25.32 74.62 25.59ZM56.17 55.28C56.15 55.68 56.12 56.08 56.1 56.48C56.07 56.94 56.05 57.41 56.03 57.88C56.02 57.93 56.02 57.98 56.02 58.03C56.01 58.22 56 58.42 56 58.62C55.99 58.86 55.98 59.11 55.98 59.36C55.97 59.48 55.97 59.6 55.97 59.72C55.96 60.03 55.95 60.34 55.95 60.65L40.71 60.65C44.54 55.52 48.98 50.41 53.88 45.52C54.33 45.06 54.79 44.61 55.24 44.17C55.65 43.77 56.06 43.37 56.48 42.98C56.91 43.06 57.34 43.13 57.78 43.21C57.01 46.92 56.46 50.98 56.17 55.28ZM62.74 89.83C62.09 88.16 61.5 86.36 60.99 84.46C60.8 83.79 60.63 83.1 60.46 82.4C64.07 81.91 67.87 81.65 71.75 81.65C76.24 81.65 80.61 81.99 84.71 82.64C84.09 85.22 83.35 87.64 82.49 89.83C79.9 96.46 76.49 100.38 73.06 100.69C72.85 100.7 72.64 100.71 72.43 100.71C72.11 100.7 71.78 100.65 71.45 100.57C68.27 99.82 65.15 96 62.74 89.83ZM80.67 24.7C87.62 26.35 93.84 29.89 98.77 34.74C99.3 35.27 99.83 35.82 100.33 36.38C96.53 38.23 91.93 39.67 86.86 40.63C86.69 39.92 86.5 39.24 86.31 38.57C84.67 32.82 82.45 28.19 79.82 25.18C80.1 25.02 80.39 24.86 80.67 24.7ZM63.69 24.51C64.63 24.31 65.58 24.14 66.54 24.01C63.65 26.7 61.16 31.29 59.33 37.19C58.13 38.25 56.93 39.33 55.74 40.45C51.03 39.5 46.75 38.12 43.17 36.38C43.68 35.82 44.2 35.27 44.74 34.74C49.86 29.69 56.4 26.07 63.69 24.51ZM41.61 38.22C45.07 39.97 49.17 41.38 53.7 42.4C53.2 42.88 52.71 43.37 52.22 43.86C46.8 49.28 41.93 54.96 37.79 60.65L33.26 60.65C33.59 52.19 36.66 44.43 41.61 38.22ZM36.13 62.99C35.21 64.32 34.35 65.64 33.52 66.96C33.36 65.66 33.26 64.33 33.23 62.99L36.13 62.99ZM28.9 99.44C26.66 97.21 25.92 93.42 26.76 88.49C27.5 84.14 29.46 78.98 32.45 73.43C34.18 79.47 37.28 84.95 41.37 89.5L42.07 90.25C44.81 93.15 47.97 95.65 51.45 97.65C40.93 102.65 32.78 103.32 28.9 99.44ZM44.24 89.13C43.72 88.6 43.21 88.05 42.72 87.49C46.98 85.34 52.27 83.73 58.13 82.75C60 90.78 62.96 97.03 66.54 100.36C65.58 100.23 64.63 100.07 63.69 99.86C56.16 98.25 49.44 94.44 44.24 89.13ZM79.02 100.04C82.1 96.98 84.69 91.77 86.5 85.11C86.69 84.44 86.86 83.75 87.03 83.05C92.26 84.05 96.97 85.56 100.84 87.52C100.35 88.08 99.84 88.63 99.32 89.16C93.88 94.74 86.83 98.57 79.02 100.04ZM110.25 60.65L89.28 60.65C89.19 54.21 88.52 48.2 87.39 42.91C92.86 41.87 97.83 40.27 101.89 38.22C106.85 44.43 109.92 52.19 110.25 60.65Z" fill="#949CA2" fill-opacity="1.000000" fill-rule="nonzero"/>
	</g>
</svg>
