<svg width="120.000000" height="120.000000" viewBox="0 0 120 120" fill="none" xmlns="http://www.w3.org/2000/svg" xmlns:xlink="http://www.w3.org/1999/xlink">
	<desc>
			Created with Pixso.
	</desc>
	<defs>
		<clipPath id="clip44_861">
			<rect id="card-coupon-discount-svgrepo-com" width="120.000000" height="120.000000" fill="white" fill-opacity="0"/>
		</clipPath>
	</defs>
	<g clip-path="url(#clip44_861)">
		<path id="path" d="M49.07 43.58C46.55 44.42 45.17 47.16 46.01 49.68C46.68 51.71 48.57 52.99 50.6 52.99C51.1 52.99 51.61 52.91 52.11 52.74C54.64 51.91 56.01 49.17 55.18 46.64C54.34 44.11 51.6 42.74 49.07 43.58ZM51.38 50.52C50.08 50.95 48.67 50.24 48.24 48.94C47.8 47.64 48.51 46.23 49.81 45.8C50.07 45.72 50.33 45.68 50.59 45.68C51.63 45.68 52.61 46.34 52.95 47.38C53.38 48.68 52.68 50.09 51.38 50.52Z" fill="#949CA2" fill-opacity="1.000000" fill-rule="nonzero"/>
		<path id="path" d="M70.72 53.6C69.88 51.07 67.14 49.7 64.62 50.54C62.09 51.37 60.72 54.11 61.55 56.64C61.6 56.79 61.66 56.93 61.72 57.07L56.86 57.07L65.27 40.3L63.17 39.25L54.23 57.07L41.82 57.07L41.82 59.42L79.4 59.42L79.4 57.07L70.56 57.07C71.03 56.01 71.11 54.78 70.72 53.6ZM63.78 55.9C63.35 54.6 64.05 53.19 65.35 52.76C66.66 52.33 68.06 53.04 68.5 54.34C68.83 55.35 68.49 56.43 67.67 57.07L64.6 57.07C64.22 56.77 63.93 56.37 63.78 55.9Z" fill="#949CA2" fill-opacity="1.000000" fill-rule="nonzero"/>
		<rect id="rect" x="55.545898" y="86.700195" width="2.343893" height="25.643377" transform="rotate(-135.004 55.545898 86.700195)" fill="#949CA2" fill-opacity="1.000000"/>
		<path id="path" d="M57.27 66.58C54.61 66.58 52.44 68.74 52.44 71.4C52.44 74.07 54.61 76.23 57.27 76.23C59.93 76.23 62.1 74.07 62.1 71.4C62.1 68.74 59.93 66.58 57.27 66.58ZM57.27 73.89C55.9 73.89 54.79 72.77 54.79 71.4C54.79 70.03 55.9 68.92 57.27 68.92C58.64 68.92 59.76 70.03 59.76 71.4C59.76 72.77 58.64 73.89 57.27 73.89Z" fill="#949CA2" fill-opacity="1.000000" fill-rule="nonzero"/>
		<path id="path" d="M65 82.9C65 85.57 67.17 87.73 69.83 87.73C72.49 87.73 74.66 85.57 74.66 82.9C74.66 80.24 72.49 78.07 69.83 78.07C67.17 78.07 65 80.24 65 82.9ZM72.32 82.9C72.32 84.27 71.2 85.39 69.83 85.39C68.46 85.39 67.35 84.27 67.35 82.9C67.35 81.53 68.46 80.42 69.83 80.42C71.2 80.42 72.32 81.53 72.32 82.9Z" fill="#949CA2" fill-opacity="1.000000" fill-rule="nonzero"/>
		<path id="path" d="M16.42 59.42L26.8 59.42C29.5 59.42 31.69 62.27 31.69 65.78L34.03 65.78C34.03 62.27 36.22 59.42 38.91 59.42L38.91 57.07C36.22 57.07 34.03 54.22 34.03 50.71L31.69 50.71C31.69 54.22 29.5 57.07 26.8 57.07L14.07 57.07L14.07 67.82L8.04 49.65L17.9 46.38L17.17 44.16L5.08 48.17L14.07 75.26L14.07 97.23L79.4 97.23L79.4 94.88L16.42 94.88L16.42 59.42ZM32.86 55.46C33.48 56.6 34.31 57.56 35.3 58.25C34.31 58.93 33.48 59.89 32.86 61.03C32.24 59.89 31.4 58.93 30.42 58.25C31.4 57.56 32.24 56.6 32.86 55.46Z" fill="#949CA2" fill-opacity="1.000000" fill-rule="nonzero"/>
		<rect id="rect" x="86.721680" y="94.887695" width="6.315001" height="2.343750" fill="#949CA2" fill-opacity="1.000000"/>
		<path id="path" d="M113.74 69.61L114.91 69.61L114.91 57.07L86.72 57.07L86.72 59.42L112.57 59.42L112.57 67.34C107.75 67.92 104 72.03 104 77.01C104 81.98 107.75 86.1 112.57 86.68L112.57 94.88L108.1 94.88C105.41 94.88 103.22 92.03 103.22 88.52L100.88 88.52C100.88 92.03 98.69 94.88 96 94.88L96 97.23C98.69 97.23 100.88 100.08 100.88 103.59L103.22 103.59C103.22 100.08 105.41 97.23 108.1 97.23L114.91 97.23L114.91 84.41L113.74 84.41C109.66 84.41 106.34 81.09 106.34 77.01C106.34 72.93 109.66 69.61 113.74 69.61ZM102.05 98.84C101.43 97.7 100.59 96.74 99.61 96.05C100.59 95.37 101.43 94.41 102.05 93.27C102.67 94.41 103.51 95.37 104.49 96.05C103.51 96.74 102.67 97.7 102.05 98.84Z" fill="#949CA2" fill-opacity="1.000000" fill-rule="nonzero"/>
		<rect id="rect" x="81.826172" y="88.717285" width="2.343750" height="2.578125" fill="#949CA2" fill-opacity="1.000000"/>
		<rect id="rect" x="81.826172" y="73.248535" width="2.343750" height="2.578125" fill="#949CA2" fill-opacity="1.000000"/>
		<rect id="rect" x="81.826172" y="78.404785" width="2.343750" height="2.578125" fill="#949CA2" fill-opacity="1.000000"/>
		<rect id="rect" x="81.826172" y="93.873535" width="2.343750" height="2.578125" fill="#949CA2" fill-opacity="1.000000"/>
		<rect id="rect" x="81.826172" y="83.561035" width="2.343750" height="2.578125" fill="#949CA2" fill-opacity="1.000000"/>
		<rect id="rect" x="81.826172" y="57.779785" width="2.343750" height="2.578122" fill="#949CA2" fill-opacity="1.000000"/>
		<rect id="rect" x="81.826172" y="62.936035" width="2.343750" height="2.578125" fill="#949CA2" fill-opacity="1.000000"/>
		<rect id="rect" x="81.826172" y="68.092285" width="2.343750" height="2.578125" fill="#949CA2" fill-opacity="1.000000"/>
		<rect id="rect" x="90.631836" y="80.682129" width="2.343750" height="4.663361" fill="#949CA2" fill-opacity="1.000000"/>
		<rect id="rect" x="90.631836" y="68.120117" width="2.343750" height="10.218517" fill="#949CA2" fill-opacity="1.000000"/>
		<rect id="rect" x="94.830078" y="68.120117" width="2.343750" height="17.225628" fill="#949CA2" fill-opacity="1.000000"/>
		<rect id="rect" x="26.123047" y="69.808594" width="20.837811" height="2.343750" fill="#949CA2" fill-opacity="1.000000"/>
		<rect id="rect" x="21.041992" y="69.808594" width="2.736329" height="2.343750" fill="#949CA2" fill-opacity="1.000000"/>
		<rect id="rect" x="21.041992" y="82.732422" width="18.142738" height="2.343750" fill="#949CA2" fill-opacity="1.000000"/>
		<rect id="rect" x="43.366211" y="76.270508" width="3.594611" height="2.343750" fill="#949CA2" fill-opacity="1.000000"/>
		<rect id="rect" x="21.041992" y="76.270508" width="20.472191" height="2.343750" fill="#949CA2" fill-opacity="1.000000"/>
		<rect id="rect" x="67.090820" y="27.596680" width="2.343695" height="37.577396" transform="rotate(71.6448 67.090820 27.596680)" fill="#949CA2" fill-opacity="1.000000"/>
		<path id="path" d="M99.3 19.37L101.79 26.88C99.83 27.81 98.23 29.35 97.25 31.33C96.08 33.65 95.89 36.29 96.71 38.76C97.53 41.23 99.26 43.24 101.59 44.4C103.56 45.39 105.76 45.68 107.89 45.24L110.84 54.14L113.06 53.4L109.4 42.35L108.28 42.72C106.41 43.34 104.4 43.19 102.64 42.31C100.87 41.42 99.55 39.9 98.93 38.02C98.31 36.15 98.45 34.14 99.34 32.38C100.23 30.61 101.75 29.29 103.62 28.67L104.73 28.3L100.79 16.4L74.03 25.29L74.77 27.51L99.3 19.37Z" fill="#949CA2" fill-opacity="1.000000" fill-rule="nonzero"/>
		<rect id="rect" x="74.266602" y="34.103516" width="2.343532" height="2.578146" transform="rotate(161.639 74.266602 34.103516)" fill="#949CA2" fill-opacity="1.000000"/>
		<rect id="rect" x="78.537109" y="54.413086" width="2.578147" height="2.343770" transform="rotate(-108.361 78.537109 54.413086)" fill="#949CA2" fill-opacity="1.000000"/>
		<rect id="rect" x="71.830078" y="26.760742" width="2.577910" height="2.343535" transform="rotate(71.6393 71.830078 26.760742)" fill="#949CA2" fill-opacity="1.000000"/>
		<rect id="rect" x="78.327148" y="46.335938" width="2.577910" height="2.343533" transform="rotate(71.6393 78.327148 46.335938)" fill="#949CA2" fill-opacity="1.000000"/>
		<rect id="rect" x="73.669922" y="39.735352" width="2.578301" height="2.343458" transform="rotate(-108.355 73.669922 39.735352)" fill="#949CA2" fill-opacity="1.000000"/>
		<rect id="rect" x="76.705078" y="41.442871" width="2.578146" height="2.343533" transform="rotate(71.6393 76.705078 41.442871)" fill="#949CA2" fill-opacity="1.000000"/>
		<rect id="rect" x="84.974609" y="46.527344" width="2.343931" height="4.663250" transform="rotate(-18.3552 84.974609 46.527344)" fill="#949CA2" fill-opacity="1.000000"/>
		<rect id="rect" x="81.017578" y="34.604980" width="2.343931" height="10.218277" transform="rotate(-18.3552 81.017578 34.604980)" fill="#949CA2" fill-opacity="1.000000"/>
		<rect id="rect" x="92.857422" y="48.826660" width="2.343930" height="17.225214" transform="rotate(161.645 92.857422 48.826660)" fill="#949CA2" fill-opacity="1.000000"/>
	</g>
</svg>
