<svg width="21.500000" height="21.500977" viewBox="0 0 21.5 21.501" fill="none" xmlns="http://www.w3.org/2000/svg" xmlns:xlink="http://www.w3.org/1999/xlink">
	<desc>
			Created with Pixso.
	</desc>
	<defs/>
	<path id="Слияние" d="M15.2363 20.5225C15.7305 20.2949 16.2051 20.0332 16.6543 19.7363C17.2617 19.3369 17.8262 18.876 18.3516 18.3516C18.875 17.8271 19.3379 17.2617 19.7363 16.6553C20.0918 16.1143 20.3984 15.541 20.6543 14.9346C20.9082 14.335 21.1055 13.7227 21.2441 13.0977C21.4141 12.334 21.5 11.5518 21.5 10.75C21.5 9.94824 21.4141 9.16602 21.2441 8.40234C21.1055 7.77734 20.9082 7.16504 20.6543 6.56543C20.3984 5.95898 20.0918 5.38574 19.7363 4.84473C19.3379 4.23828 18.875 3.67285 18.3516 3.14844C17.8262 2.62402 17.2617 2.16211 16.6543 1.76367C16.1152 1.40723 15.541 1.10156 14.9355 0.844727C14.3359 0.591797 13.7227 0.394531 13.0977 0.255859C12.334 0.0849609 11.5508 0 10.75 0C9.94922 0 9.16602 0.0849609 8.40234 0.255859C7.77734 0.394531 7.16406 0.591797 6.56445 0.844727C5.95898 1.10156 5.38477 1.40723 4.8457 1.76367C4.23828 2.16309 3.67383 2.62402 3.14844 3.14844C2.625 3.67285 2.16211 4.23828 1.76367 4.84473C1.4082 5.38574 1.10156 5.95898 0.845703 6.56543C0.591797 7.16504 0.394531 7.77734 0.255859 8.40234C0.0859375 9.16602 0 9.94824 0 10.75C0 11.5518 0.0859375 12.334 0.255859 13.0977C0.394531 13.7227 0.591797 14.335 0.845703 14.9346C1.10156 15.541 1.4082 16.1143 1.76367 16.6553C2.16211 17.2617 2.625 17.8271 3.14844 18.3516C3.67383 18.876 4.23828 19.3379 4.8457 19.7363C5.29492 20.0322 5.76758 20.2939 6.26172 20.5215C6.4375 20.6016 6.61523 20.6777 6.79688 20.75C7.33398 20.9639 7.88477 21.1318 8.44336 21.2539C9.19336 21.4189 9.96289 21.501 10.75 21.501C11.5371 21.501 12.3066 21.4189 13.0566 21.2539C13.6152 21.1318 14.166 20.9639 14.7031 20.75C14.8848 20.6787 15.0605 20.6025 15.2363 20.5225ZM17.8184 16.7168C18.0625 16.4297 18.2871 16.1299 18.4922 15.8164C18.7949 15.3555 19.0547 14.8662 19.2734 14.3506C19.4883 13.8438 19.6543 13.3271 19.7734 12.7998C19.9238 12.1338 20 11.4502 20 10.75C20 10.0498 19.9238 9.36621 19.7734 8.7002C19.6543 8.17285 19.4883 7.65625 19.2734 7.14941C19.0547 6.63379 18.7949 6.14453 18.4922 5.68262C18.1465 5.15625 17.7461 4.66504 17.291 4.20898C16.8359 3.75391 16.3438 3.35352 15.8164 3.00781C15.3555 2.70508 14.8672 2.44531 14.3496 2.22656C13.8438 2.0127 13.3281 1.8457 12.7988 1.72656C12.1328 1.5752 11.4512 1.5 10.75 1.5C10.0488 1.5 9.36719 1.5752 8.70117 1.72656C8.17383 1.8457 7.65625 2.0127 7.15039 2.22656C6.63281 2.44531 6.14453 2.70508 5.68359 3.00781C5.15625 3.35352 4.66406 3.75391 4.20898 4.20898C3.75391 4.66504 3.35352 5.15625 3.00781 5.68359C2.70508 6.14453 2.44531 6.63379 2.22656 7.14941C2.01172 7.65625 1.8457 8.17285 1.72656 8.7002C1.57617 9.36621 1.5 10.0498 1.5 10.75C1.5 11.4502 1.57617 12.1338 1.72656 12.7998C1.8457 13.3271 2.01172 13.8438 2.22656 14.3506C2.44531 14.8662 2.70508 15.3555 3.00781 15.8164C3.21289 16.1299 3.4375 16.4297 3.68164 16.7168C3.75 16.5889 3.82617 16.4629 3.91016 16.3379C4.26953 15.8086 4.75195 15.3389 5.36133 14.9287C6.10547 14.4355 6.95508 14.0596 7.91211 13.8027C8.82422 13.5586 9.77148 13.4365 10.7578 13.4365C11.7422 13.4365 12.6914 13.5586 13.5996 13.8037C14.5547 14.0605 15.4004 14.4355 16.1367 14.9277C16.7461 15.3379 17.2305 15.8086 17.5898 16.3379C17.6738 16.4629 17.75 16.5898 17.8184 16.7168ZM6.91406 19.1699C6.99219 19.2051 7.07031 19.2402 7.15039 19.2734C7.65625 19.4873 8.17383 19.6543 8.70117 19.7734C9.36719 19.9248 10.0488 20 10.75 20C11.4512 20 12.1328 19.9248 12.7988 19.7734C13.3262 19.6543 13.8438 19.4873 14.3496 19.2734C14.4297 19.2393 14.5098 19.2051 14.5879 19.1689C14.8867 19.0322 15.1758 18.8809 15.457 18.7139L15.457 18.7139C15.8828 18.4609 16.2891 18.1738 16.6719 17.8506C16.6055 17.623 16.4961 17.3994 16.3477 17.1797C16.0977 16.8096 15.75 16.4746 15.3027 16.1748C14.7031 15.7734 14.0059 15.4658 13.209 15.252C12.4277 15.041 11.6113 14.9365 10.7578 14.9365C9.9043 14.9365 9.08594 15.041 8.30078 15.252C7.50195 15.4668 6.80078 15.7734 6.19922 16.1738C5.75195 16.4746 5.40234 16.8096 5.15234 17.1797C5.00391 17.3994 4.89453 17.623 4.82812 17.8506C5.21289 18.1738 5.61719 18.4609 6.04297 18.7139L6.04297 18.7139C6.32422 18.8809 6.61523 19.0332 6.91406 19.1699ZM9.75977 12.1621C10.0332 12.2314 10.3145 12.2705 10.6035 12.2803C10.6152 12.2812 10.625 12.2812 10.6348 12.2812C10.6445 12.2812 10.6543 12.2803 10.6641 12.2803C10.6738 12.2793 10.6836 12.2793 10.6934 12.2783L10.6934 12.2783L10.6953 12.2783C10.7051 12.2773 10.7129 12.2764 10.7227 12.2754C10.7422 12.2725 10.7559 12.2725 10.7637 12.2734C10.7754 12.2744 10.7852 12.2764 10.7969 12.2773L10.7969 12.2773C10.8086 12.2783 10.8184 12.2793 10.8301 12.2793C10.8398 12.2803 10.8516 12.2803 10.8613 12.2812L10.8633 12.2812C10.873 12.2812 10.8848 12.2812 10.8965 12.2803C11.1895 12.2705 11.4746 12.2305 11.752 12.1592L11.752 12.1592C11.9785 12.1016 12.1992 12.0244 12.4141 11.9268C12.6328 11.8271 12.8398 11.7109 13.0352 11.5771L13.0352 11.5762L13.0352 11.5762C13.2539 11.4258 13.457 11.2529 13.6465 11.0586C13.8242 10.8721 13.9844 10.6738 14.123 10.4609C14.2598 10.2529 14.375 10.0312 14.4727 9.79688C14.5547 9.60059 14.6191 9.39941 14.668 9.19531C14.7402 8.89258 14.7773 8.58105 14.7793 8.26074C14.7793 7.9668 14.75 7.67969 14.6875 7.39941L14.6875 7.39844C14.6348 7.1582 14.5605 6.92285 14.4629 6.69238C14.3672 6.46484 14.252 6.24902 14.1172 6.0459L14.1172 6.0459C13.9688 5.81934 13.7949 5.60742 13.5996 5.41211C13.4023 5.21582 13.1914 5.04297 12.9648 4.89355L12.9648 4.89355L12.9648 4.89355C12.7617 4.75977 12.5469 4.64453 12.3184 4.54785C12.0879 4.4502 11.8535 4.37598 11.6113 4.32324L11.6113 4.32324C11.332 4.26172 11.0449 4.23047 10.75 4.23047C10.4434 4.23047 10.1426 4.26367 9.85156 4.33008L9.85156 4.33008C9.62109 4.38281 9.39648 4.45508 9.17773 4.54785C8.94727 4.64551 8.72852 4.7627 8.52344 4.89844L8.52344 4.89941C8.29883 5.04688 8.08984 5.21875 7.89648 5.41211C7.70508 5.60449 7.53516 5.81152 7.38867 6.03418L7.38867 6.03418L7.38867 6.03418C7.25195 6.24121 7.13281 6.46094 7.03516 6.69336C6.94141 6.91797 6.86719 7.14746 6.81641 7.38086L6.81641 7.38086C6.75195 7.66699 6.7207 7.96094 6.7207 8.26074C6.7207 8.55664 6.75 8.84473 6.8125 9.12695L6.8125 9.12793L6.8125 9.12793C6.86328 9.35449 6.93359 9.57812 7.02344 9.7959C7.11523 10.0225 7.22852 10.2363 7.35742 10.4385L7.35742 10.4385C7.5 10.6592 7.66406 10.8662 7.85156 11.0586C8.03711 11.25 8.23633 11.4199 8.45117 11.5684L8.45117 11.5684C8.65039 11.7061 8.86133 11.8262 9.08594 11.9268C9.30469 12.0264 9.5293 12.1045 9.75977 12.1621ZM10.6074 10.7793C10.4336 10.7705 10.2637 10.7441 10.0996 10.7012L10.0996 10.7012C9.96484 10.665 9.83203 10.6182 9.70312 10.5596C9.56445 10.498 9.43555 10.4248 9.31445 10.3418C9.17578 10.2471 9.04688 10.1377 8.92969 10.0156C8.80859 9.8916 8.70312 9.75879 8.61328 9.61621C8.53516 9.49219 8.4668 9.36133 8.41016 9.22363C8.35742 9.09766 8.31641 8.96777 8.28516 8.83691L8.28516 8.83594L8.28516 8.83594C8.24219 8.64941 8.2207 8.45703 8.2207 8.26074C8.2207 8.06152 8.24219 7.86719 8.28711 7.67871L8.28711 7.67871L8.28711 7.67773C8.31836 7.54102 8.36328 7.40723 8.41797 7.27637C8.47852 7.13281 8.55078 6.99805 8.63281 6.87012L8.63281 6.87012C8.72656 6.72754 8.83594 6.59473 8.95898 6.47168C9.08203 6.34668 9.2168 6.2373 9.36133 6.14258C9.48828 6.06055 9.62109 5.98926 9.76172 5.92969C9.88867 5.87598 10.0176 5.83301 10.1484 5.80176L10.1484 5.80176L10.1484 5.80176L10.1484 5.80176C10.3438 5.75488 10.5449 5.73047 10.75 5.73047C10.9434 5.73047 11.1309 5.75195 11.3145 5.79395L11.3145 5.79395C11.457 5.82617 11.5977 5.87109 11.7344 5.92969C11.8711 5.98828 12.002 6.05762 12.127 6.1377C12.2734 6.2334 12.4121 6.3457 12.5391 6.47266C12.666 6.59961 12.7773 6.7373 12.873 6.88477L12.873 6.88477C12.9531 7.00781 13.0234 7.13867 13.082 7.27734C13.1387 7.41406 13.1855 7.55469 13.2168 7.69727L13.2168 7.69727C13.2598 7.88086 13.2793 8.06836 13.2793 8.26074C13.2793 8.44141 13.2598 8.61816 13.2227 8.79102L13.2227 8.79102C13.1895 8.93848 13.1445 9.08203 13.0859 9.22363C13.0254 9.37012 12.9531 9.50781 12.8691 9.63867L12.8672 9.63867L12.8672 9.63867C12.7812 9.77246 12.6797 9.89844 12.5664 10.0156C12.4453 10.1426 12.3125 10.2539 12.1699 10.3506C12.0527 10.4307 11.9277 10.501 11.7949 10.5605C11.6699 10.6172 11.541 10.6631 11.4102 10.6982L11.4102 10.6982C11.2441 10.7422 11.0723 10.7695 10.8945 10.7793C10.8027 10.7705 10.7051 10.7705 10.6074 10.7793Z" clip-rule="evenodd" fill="#FFFFFF" fill-opacity="1.000000" fill-rule="evenodd"/>
</svg>
