<svg width="20.503906" height="20.502930" viewBox="0 0 20.5039 20.5029" fill="none" xmlns="http://www.w3.org/2000/svg" xmlns:xlink="http://www.w3.org/1999/xlink">
	<desc>
			Created with Pixso.
	</desc>
	<defs/>
	<path id="Слияние" d="M9.25 18.5C8.56055 18.5 7.88867 18.4268 7.23242 18.2803C6.69336 18.1602 6.16602 17.9912 5.64844 17.7725C5.12695 17.5518 4.63281 17.2881 4.16797 16.9824C3.64648 16.6387 3.16016 16.2412 2.70898 15.791C2.25781 15.3398 1.86133 14.8535 1.51758 14.332C1.21094 13.8662 0.947266 13.373 0.726562 12.8506C0.507812 12.334 0.339844 11.8066 0.21875 11.2676L0.21875 11.2676C0.0722656 10.6113 0 9.93945 0 9.25C0 8.56152 0.0722656 7.88867 0.21875 7.23242L0.21875 7.23242C0.339844 6.69336 0.507812 6.16602 0.726562 5.64941C0.947266 5.12695 1.21094 4.63379 1.51758 4.16797L1.51758 4.16797C1.86133 3.64648 2.25781 3.16016 2.70898 2.70898C3.16016 2.25879 3.64648 1.86133 4.16797 1.51855C4.63281 1.21191 5.12695 0.948242 5.64844 0.727539C6.16602 0.508789 6.69336 0.339844 7.23242 0.219727L7.23242 0.219727L7.23242 0.219727C7.88867 0.0732422 8.56055 0 9.25 0C9.93945 0 10.6113 0.0732422 11.2676 0.219727C11.8066 0.339844 12.334 0.508789 12.8516 0.727539C13.373 0.948242 13.8672 1.21191 14.332 1.51855C14.8535 1.86133 15.3398 2.25879 15.791 2.70898C16.2422 3.16016 16.6387 3.64648 16.9824 4.16797C17.2891 4.63379 17.5527 5.12695 17.7734 5.64941C17.9922 6.16602 18.1602 6.69336 18.2812 7.23242C18.4277 7.88867 18.5 8.56152 18.5 9.25C18.5 9.93848 18.4277 10.6113 18.2812 11.2676C18.1602 11.8066 17.9922 12.334 17.7734 12.8506C17.5527 13.373 17.2891 13.8662 16.9824 14.332C16.7734 14.6475 16.5469 14.9502 16.3008 15.2393L20.2812 19.2197C20.5781 19.5166 20.5781 19.9834 20.2812 20.2803C19.9824 20.5771 19.5176 20.5771 19.2188 20.2803L15.2402 16.2998C14.9492 16.5469 14.6484 16.7744 14.332 16.9824C13.8672 17.2881 13.373 17.5518 12.8516 17.7725C12.334 17.9912 11.8066 18.1602 11.2676 18.2803C10.6113 18.4268 9.93945 18.5 9.25 18.5ZM14.832 14.627C15.1719 14.2744 15.4746 13.8965 15.7383 13.4941L15.7383 13.4941C15.9902 13.1074 16.209 12.6982 16.3906 12.2666C16.5703 11.8428 16.709 11.4111 16.8105 10.9697L16.8105 10.9697C16.9375 10.4111 17 9.83789 17 9.25C17 8.66211 16.9375 8.08887 16.8105 7.53027C16.709 7.08887 16.5703 6.65723 16.3906 6.2334C16.209 5.80176 15.9902 5.39258 15.7383 5.00586L15.7383 5.00586L15.7383 5.00586C15.4473 4.56348 15.1113 4.15137 14.7305 3.76953C14.3477 3.3877 13.9355 3.05273 13.4941 2.7627L13.4941 2.7627C13.1074 2.50977 12.6992 2.29199 12.2656 2.1084C11.8438 1.92969 11.4102 1.79004 10.9707 1.69043L10.9707 1.69043L10.9688 1.69043C10.4102 1.56348 9.83789 1.5 9.25 1.5C8.66211 1.5 8.08984 1.56348 7.53125 1.69043C7.08984 1.79004 6.65625 1.92969 6.23438 2.1084C5.80078 2.29199 5.39258 2.50977 5.00586 2.7627C4.56445 3.05176 4.15234 3.3877 3.76953 3.76953C3.38867 4.15137 3.05273 4.56348 2.76172 5.00586L2.76172 5.00586L2.76172 5.00586C2.50977 5.39258 2.29102 5.80176 2.10938 6.2334C1.92969 6.65723 1.79102 7.08887 1.68945 7.53027L1.68945 7.53027C1.5625 8.08887 1.5 8.66211 1.5 9.25C1.5 9.83789 1.5625 10.4111 1.68945 10.9697L1.68945 10.9697C1.79102 11.4111 1.92969 11.8428 2.10938 12.2666C2.29102 12.6982 2.50977 13.1074 2.76172 13.4941C3.05273 13.9365 3.38867 14.3486 3.76953 14.7305C4.15234 15.1123 4.56445 15.4482 5.00586 15.7373C5.39258 15.9902 5.80078 16.208 6.23438 16.3916C6.65625 16.5703 7.08984 16.71 7.53125 16.8096C8.08984 16.9365 8.66211 17 9.25 17C9.83789 17 10.4102 16.9365 10.9688 16.8096C11.4102 16.71 11.8438 16.5703 12.2656 16.3916C12.6992 16.208 13.1074 15.9902 13.4941 15.7373L13.4941 15.7373C13.8965 15.4736 14.2734 15.1719 14.627 14.8311C14.6543 14.792 14.6855 14.7549 14.7188 14.7197C14.7539 14.6846 14.793 14.6533 14.832 14.627Z" clip-rule="evenodd" fill="#FFFFFF" fill-opacity="1.000000" fill-rule="evenodd"/>
</svg>
