<svg width="21.469727" height="21.500000" viewBox="0 0 21.4697 21.5" fill="none" xmlns="http://www.w3.org/2000/svg" xmlns:xlink="http://www.w3.org/1999/xlink">
	<desc>
			Created with Pixso.
	</desc>
	<defs/>
	<path id="Vector" d="M20.46 18.16C20.29 18.53 20.08 18.87 19.79 19.19C19.29 19.73 18.75 20.12 18.15 20.37C17.54 20.62 16.9 20.75 16.2 20.75C15.17 20.75 14.08 20.5 12.94 20.01C11.79 19.53 10.63 18.87 9.5 18.04C8.34 17.2 7.25 16.26 6.21 15.24C5.19 14.2 4.25 13.11 3.42 11.96C2.61 10.83 1.95 9.69 1.46 8.55C0.99 7.41 0.75 6.33 0.75 5.29C0.75 4.61 0.87 3.95 1.11 3.36C1.34 2.75 1.73 2.19 2.25 1.69C2.9 1.05 3.59 0.75 4.33 0.75C4.62 0.75 4.9 0.8 5.15 0.92C5.41 1.04 5.63 1.23 5.82 1.49L8.13 4.75C8.32 5 8.45 5.24 8.54 5.45C8.62 5.66 8.67 5.87 8.67 6.07C8.67 6.3 8.61 6.54 8.46 6.78C8.33 7 8.15 7.25 7.91 7.49L7.15 8.28C7.04 8.38 6.99 8.51 6.99 8.67C6.99 8.75 7 8.83 7.01 8.91C7.04 8.99 7.08 9.04 7.09 9.11C7.28 9.44 7.58 9.87 8.03 10.38C8.48 10.91 8.95 11.44 9.48 11.96C10.01 12.5 10.54 12.99 11.07 13.44C11.58 13.87 12.01 14.17 12.36 14.36C12.41 14.37 12.46 14.41 12.54 14.44C12.62 14.46 12.7 14.48 12.79 14.48C12.96 14.48 13.08 14.41 13.2 14.3L13.96 13.55C14.21 13.3 14.45 13.12 14.67 13C14.91 12.86 15.13 12.79 15.38 12.79C15.58 12.79 15.78 12.83 16 12.91C16.21 13 16.45 13.13 16.7 13.3L20 15.66C20.26 15.83 20.45 16.04 20.55 16.29C20.66 16.54 20.71 16.79 20.71 17.08C20.71 17.44 20.63 17.8 20.46 18.16Z" stroke="#EB2819" stroke-opacity="1.000000" stroke-width="1.500000"/>
</svg>
