<svg width="22.616211" height="18.846680" viewBox="0 0 22.6162 18.8467" fill="none" xmlns="http://www.w3.org/2000/svg" xmlns:xlink="http://www.w3.org/1999/xlink">
	<desc>
			Created with Pixso.
	</desc>
	<defs/>
	<path id="Vector" d="M22.6 1.33C22.77 -0.65 20.68 0.16 20.68 0.16C19.14 0.8 17.54 1.45 15.93 2.11C10.94 4.14 5.78 6.25 1.39 8.32C-0.99 9.19 0.4 10.07 0.4 10.07L4.18 11.23C5.92 11.76 6.85 11.17 6.85 11.17L14.99 5.64C17.89 3.66 17.2 5.29 16.5 5.99L10.4 11.82C9.47 12.63 9.93 13.33 10.34 13.68C11.49 14.7 14.33 16.56 15.57 17.37C15.89 17.58 16.1 17.72 16.15 17.76C16.44 17.99 18.01 19.04 19.06 18.81C20.1 18.57 20.22 17.23 20.22 17.23L21.61 8.09C21.82 6.5 22.06 4.97 22.25 3.75C22.43 2.6 22.57 1.72 22.6 1.33Z" fill="#FFFFFF" fill-opacity="1.000000" fill-rule="evenodd"/>
</svg>
