<svg width="24.521484" height="24.640137" viewBox="0 0 24.5215 24.6401" fill="none" xmlns="http://www.w3.org/2000/svg" xmlns:xlink="http://www.w3.org/1999/xlink">
	<desc>
			Created with Pixso.
	</desc>
	<defs/>
	<path id="Vector" d="M20.94 3.58C18.64 1.27 15.57 0 12.31 0C5.58 0 0.1 5.47 0.1 12.2C0.1 14.36 0.66 16.46 1.73 18.31L0 24.64L6.47 22.94C8.25 23.91 10.26 24.42 12.3 24.42L12.31 24.42C19.04 24.42 24.51 18.95 24.52 12.21C24.52 8.95 23.25 5.88 20.94 3.58ZM17.87 14.76C17.57 14.61 16.07 13.87 15.79 13.77C15.51 13.67 15.31 13.62 15.1 13.92C14.9 14.23 14.32 14.91 14.14 15.12C13.96 15.32 13.78 15.35 13.48 15.19C13.43 15.17 13.36 15.14 13.27 15.1C12.84 14.92 12 14.55 11.02 13.68C10.12 12.87 9.5 11.87 9.33 11.57C9.15 11.26 9.31 11.1 9.46 10.94C9.55 10.85 9.66 10.72 9.76 10.6C9.81 10.53 9.87 10.47 9.92 10.41C10.05 10.26 10.1 10.14 10.18 9.99C10.19 9.96 10.21 9.93 10.22 9.9C10.32 9.7 10.27 9.52 10.2 9.37C10.15 9.26 9.86 8.56 9.59 7.92C9.46 7.6 9.34 7.3 9.26 7.1C9.04 6.57 8.82 6.58 8.64 6.58C8.61 6.58 8.59 6.58 8.57 6.58C8.39 6.57 8.19 6.57 7.98 6.57C7.78 6.57 7.45 6.64 7.17 6.95C7.15 6.97 7.13 6.99 7.11 7.01C6.79 7.35 6.1 8.09 6.1 9.49C6.1 10.99 7.19 12.44 7.35 12.65L7.35 12.65C7.36 12.66 7.38 12.69 7.4 12.72C7.77 13.25 9.7 16.02 12.56 17.26C13.29 17.57 13.86 17.76 14.3 17.9C15.03 18.13 15.7 18.1 16.22 18.02C16.81 17.93 18.03 17.28 18.28 16.57C18.54 15.86 18.54 15.24 18.46 15.12C18.4 15.01 18.25 14.94 18.04 14.84C17.99 14.82 17.93 14.79 17.87 14.76Z" fill="#FFFFFF" fill-opacity="1.000000" fill-rule="evenodd"/>
</svg>
